PathFileType	4	(X/Y/Z)	Walk7.trc
DataRate	CameraRate	NumFrames	NumMarkers	Units	OrigDataRate	OrigDataStartFrame	OrigNumFrames
200.000000	200.000000	8	60	mm	200.000000	619	814
Frame#	Times		RCAR		LToe		RWRU		RACR1		LUA1		LFA1		LASI		RFHD		LElbow		RLFC		RFA1		RTH3		LLFC		STRN		LCAR		LWRR		LACR1		RTB2		RToe		RWRR		RMT5		RMT1		LWRU		RMFC		RTH2		C7		RTB3		RPSI		LPSI		RCAL		RTB1		LTH3		LTB1		LTB4		LTH1		LTH4		RTB4		CLAV		LMT1		LMFC		RASI		RMMAL		RLMAL		LTH2		RBHD		LBHD		LTB2		LTB3		RElbow		RTH4		RUA1		LMMAL		RBack		LCAL		T10		RTH1		LMT5		LElbowM		RElbowM		LLMAL
			X1	Y1	Z1	X2	Y2	Z2	X3	Y3	Z3	X4	Y4	Z4	X5	Y5	Z5	X6	Y6	Z6	X7	Y7	Z7	X8	Y8	Z8	X9	Y9	Z9	X10	Y10	Z10	X11	Y11	Z11	X12	Y12	Z12	X13	Y13	Z13	X14	Y14	Z14	X15	Y15	Z15	X16	Y16	Z16	X17	Y17	Z17	X18	Y18	Z18	X19	Y19	Z19	X20	Y20	Z20	X21	Y21	Z21	X22	Y22	Z22	X23	Y23	Z23	X24	Y24	Z24	X25	Y25	Z25	X26	Y26	Z26	X27	Y27	Z27	X28	Y28	Z28	X29	Y29	Z29	X30	Y30	Z30	X31	Y31	Z31	X32	Y32	Z32	X33	Y33	Z33	X34	Y34	Z34	X35	Y35	Z35	X36	Y36	Z36	X37	Y37	Z37	X38	Y38	Z38	X39	Y39	Z39	X40	Y40	Z40	X41	Y41	Z41	X42	Y42	Z42	X43	Y43	Z43	X44	Y44	Z44	X45	Y45	Z45	X46	Y46	Z46	X47	Y47	Z47	X48	Y48	Z48	X49	Y49	Z49	X50	Y50	Z50	X51	Y51	Z51	X52	Y52	Z52	X53	Y53	Z53	X54	Y54	Z54	X55	Y55	Z55	X56	Y56	Z56	X57	Y57	Z57	X58	Y58	Z58	X59	Y59	Z59	X60	Y60	Z60

619	3.095	311.88	872.41	391.43	140.33	44.216	-70.174	316.63	906.42	324.13	233.05	1508.5	218.02	189.33	1356.2	-234.38	238.69	1057.6	-293.06	255.53	1040.1	-139.95	387.61	1677.3	95.561	155.52	1187.9	-281.66	210.87	512.36	195.14	261.26	1044.1	351.18	187.21	649.4	207.73	295.19	533.71	-153.67	333.61	1305.4	15.548	281.89	893.06	-309.85	282.7	930.27	-252.59	199.53	1539.7	-152.09	252.26	277.26	156.37	395.6	41.344	65.449	249.8	903.18	382.5	307.46	29.279	154.19	344.5	53.422	56.059	209.82	929.63	-312.78	201.77	508.02	46.789	227.72	742.82	228.39	111.52	1570.8	48.797	240.12	198.34	86.202	38.809	1076.9	74.703	35.549	1078.2	-34.561	124.31	41.502	86.266	259.02	369.18	104.64	284.1	656.09	-178.87	267.78	396.58	-55.637	200.39	340.48	-47.171	224.54	819.54	-195.94	254.58	737.62	-188.22	249.46	283.34	94.993	273.4	1476.6	15.426	106.41	85.51	-48.713	335.53	523.48	-20.721	260.57	1054.2	180.56	212.13	105.45	33.493	186.35	73.246	124.79	308.31	759.22	-187.02	219.68	1705.4	118.51	219.22	1708.2	-24.437	203.96	326.63	-109.25	137.75	280.73	-39.278	172.49	1171.4	341.81	169.98	731.13	215.87	215.83	1328.9	293.38	60.603	219.22	6.2522	60.653	1451	168.9	-42.986	246.47	-34.221	54.386	1214.6	21.738	154.35	817.64	226.95	56.804	106.35	-125.51	123.37	1159.2	-197.45	139.94	1143.4	254.66	12.477	221.82	-86.932
620	3.1	318.58	873.54	391.94	157.43	43.912	-69.547	323.23	907.53	324.69	237.95	1509	218.23	193.2	1356.5	-234.19	241.98	1057.9	-293.41	260.29	1040.7	-139.22	392.55	1677.4	95.571	158.99	1188.3	-281.5	211.95	512.37	195.25	267.28	1045	351.69	189.09	649.62	207.84	303.84	535.08	-153.39	338.11	1305.7	15.935	284.97	893.51	-310.59	286.06	930.55	-253.24	203.98	1540	-151.84	252.74	277.16	156.56	395.66	41.281	65.601	256.37	903.98	382.87	307.46	29.24	154.26	344.58	53.414	56.139	212.85	929.99	-313.01	203.34	508.12	46.855	230.15	742.77	228.64	116.23	1571.2	49.157	240.57	198.31	86.372	43.188	1077.3	74.759	40.03	1078.6	-34.496	124.32	41.561	86.254	259.91	369.03	104.86	291.59	657.64	-178.71	277.9	397.56	-55.162	211.8	340.56	-46.678	230.54	820.54	-195.77	261.29	738.89	-188.11	250.1	283.24	95.145	278.03	1476.9	15.651	122.63	84.568	-48.128	343.63	525.53	-20.396	264.68	1054.4	181.14	212.27	105.48	33.515	186.39	73.252	124.67	314.89	760.99	-186.97	224.7	1705.8	118.68	224.07	1708.5	-24.256	215.53	326.58	-108.65	150.02	279.79	-38.613	178.06	1171.9	342.29	172.38	731.45	215.93	221.14	1329.4	293.67	73.789	217.1	6.804	65.457	1451.4	169.33	-30.413	242.13	-33.697	58.868	1215	22.007	157.31	818.03	227.02	72.597	104.35	-124.96	127.09	1159.6	-197.22	145.53	1143.9	255.16	25.706	218.65	-86.39
621	3.105	325.28	874.63	392.43	174.66	43.604	-69.038	329.84	908.62	325.22	242.82	1509.5	218.44	197.06	1356.8	-234.02	245.27	1058.3	-293.77	265.07	1041.3	-138.49	397.48	1677.5	95.567	162.47	1188.7	-281.34	213.04	512.37	195.38	273.3	1045.8	352.18	191	649.84	207.96	312.37	536.38	-153.11	342.6	1305.9	16.326	288.08	893.93	-311.33	289.46	930.8	-253.9	208.43	1540.2	-151.6	253.22	277.05	156.73	395.71	41.211	65.757	262.95	904.73	383.2	307.46	29.2	154.32	344.65	53.404	56.218	215.88	930.31	-313.22	204.89	508.2	46.923	232.6	742.71	228.87	120.92	1571.6	49.502	241.02	198.27	86.536	47.566	1077.5	74.792	44.516	1078.9	-34.456	124.33	41.622	86.243	260.8	368.88	105.09	299.03	659.17	-178.57	287.9	398.44	-54.722	223.2	340.54	-46.209	236.56	821.52	-195.61	267.99	740.14	-188.03	250.74	283.13	95.294	282.66	1477.2	15.877	138.97	83.573	-47.639	351.59	527.52	-20.075	268.78	1054.6	181.65	212.41	105.5	33.539	186.42	73.263	124.55	321.45	762.74	-186.89	229.69	1706.1	118.84	228.89	1708.7	-24.092	227.09	326.44	-108.09	162.33	278.73	-37.999	183.6	1172.4	342.75	174.81	731.75	216.01	226.4	1330	293.97	87.08	214.83	7.2984	70.248	1451.8	169.74	-17.716	237.59	-33.191	63.362	1215.4	22.263	160.28	818.4	227.09	88.51	102.28	-124.47	130.81	1160	-197	151.1	1144.3	255.65	39.033	215.32	-85.882
622	3.11	331.97	875.69	392.88	192.01	43.297	-68.635	336.45	909.68	325.72	247.67	1510	218.64	200.91	1357	-233.86	248.56	1058.6	-294.14	269.87	1041.7	-137.77	402.37	1677.5	95.55	165.95	1189	-281.18	214.16	512.37	195.51	279.3	1046.6	352.66	192.93	650.04	208.08	320.79	537.62	-152.82	347.1	1306.2	16.719	291.19	894.32	-312.09	292.88	931.04	-254.57	212.86	1540.4	-151.38	253.72	276.93	156.91	395.77	41.133	65.917	269.54	905.45	383.5	307.45	29.161	154.38	344.73	53.392	56.294	218.93	930.59	-313.41	206.43	508.29	46.992	235.08	742.65	229.1	125.6	1571.9	49.832	241.46	198.22	86.691	51.944	1077.8	74.805	49.009	1079.1	-34.437	124.35	41.685	86.234	261.68	368.73	105.31	306.43	660.66	-178.45	297.78	399.22	-54.322	234.56	340.4	-45.768	242.6	822.48	-195.47	274.66	741.37	-187.97	251.37	283.01	95.44	287.28	1477.4	16.104	155.44	82.533	-47.239	359.39	529.43	-19.759	272.86	1054.7	182.08	212.54	105.51	33.566	186.46	73.279	124.45	327.97	764.46	-186.76	234.66	1706.5	118.99	233.69	1708.9	-23.944	238.64	326.23	-107.57	174.67	277.57	-37.446	189.13	1172.8	343.21	177.26	732.04	216.09	231.63	1330.5	294.27	100.47	212.43	7.7317	75.029	1452.2	170.14	-4.8937	232.86	-32.719	67.867	1215.7	22.509	163.25	818.76	227.19	104.54	100.15	-124.05	134.53	1160.3	-196.79	156.67	1144.6	256.12	52.458	211.86	-85.418
623	3.115	338.67	876.72	393.29	209.45	42.991	-68.322	343.05	910.71	326.18	252.5	1510.4	218.84	204.76	1357.2	-233.7	251.86	1058.8	-294.52	274.67	1042.1	-137.06	407.25	1677.6	95.524	169.43	1189.3	-281.04	215.3	512.37	195.65	285.3	1047.4	353.11	194.88	650.24	208.22	329.09	538.8	-152.53	351.6	1306.3	17.112	294.32	894.68	-312.84	296.34	931.26	-255.26	217.28	1540.5	-151.17	254.22	276.81	157.08	395.82	41.045	66.081	276.12	906.13	383.77	307.45	29.123	154.45	344.81	53.378	56.367	222	930.82	-313.57	207.95	508.37	47.064	237.58	742.57	229.31	130.27	1572.2	50.147	241.9	198.18	86.837	56.324	1078	74.8	53.51	1079.4	-34.438	124.38	41.749	86.226	262.56	368.57	105.52	313.79	662.13	-178.36	307.56	399.9	-53.961	245.87	340.16	-45.36	248.66	823.42	-195.33	281.32	742.56	-187.94	252	282.87	95.585	291.89	1477.6	16.331	171.99	81.451	-46.92	367.05	531.26	-19.45	276.91	1054.8	182.44	212.68	105.53	33.595	186.49	73.3	124.36	334.48	766.13	-186.6	239.6	1706.8	119.12	238.46	1709.1	-23.812	250.18	325.95	-107.09	187.02	276.31	-36.96	194.64	1173.2	343.66	179.73	732.31	216.18	236.81	1331	294.58	113.94	209.91	8.0993	79.798	1452.5	170.53	8.0548	227.97	-32.298	72.382	1216	22.746	166.24	819.09	227.31	120.66	97.967	-123.7	138.26	1160.6	-196.58	162.23	1144.9	256.57	65.981	208.27	-85.008
624	3.12	345.37	877.71	393.67	226.96	42.69	-68.086	349.65	911.71	326.61	257.31	1510.8	219.03	208.61	1357.4	-233.56	255.16	1059.1	-294.9	279.48	1042.5	-136.38	412.09	1677.6	95.489	172.92	1189.6	-280.89	216.46	512.36	195.81	291.28	1048.1	353.54	196.86	650.42	208.36	337.27	539.9	-152.25	356.1	1306.5	17.502	297.46	895.01	-313.59	299.83	931.45	-255.96	221.7	1540.7	-150.98	254.73	276.68	157.24	395.88	40.946	66.249	282.7	906.78	384.03	307.45	29.086	154.51	344.89	53.362	56.436	225.07	931	-313.71	209.46	508.45	47.138	240.11	742.49	229.52	134.93	1572.5	50.447	242.33	198.12	86.972	60.705	1078.2	74.782	58.018	1079.6	-34.456	124.41	41.816	86.218	263.43	368.42	105.73	321.1	663.55	-178.29	317.26	400.5	-53.639	257.13	339.8	-44.99	254.72	824.34	-195.21	287.97	743.73	-187.95	252.63	282.73	95.727	296.49	1477.8	16.56	188.63	80.333	-46.674	374.55	532.98	-19.15	280.94	1054.8	182.72	212.82	105.54	33.623	186.53	73.323	124.27	340.97	767.77	-186.39	244.51	1707.1	119.24	243.22	1709.3	-23.693	261.7	325.59	-106.65	199.39	274.97	-36.548	200.14	1173.6	344.11	182.24	732.56	216.29	241.96	1331.4	294.9	127.5	207.27	8.396	84.557	1452.8	170.92	21.13	222.92	-31.945	76.902	1216.2	22.974	169.25	819.41	227.46	136.89	95.737	-123.42	142	1160.9	-196.37	167.78	1145.2	257.01	79.603	204.57	-84.663
625	3.125	352.07	878.67	394.02	244.52	42.397	-67.916	356.25	912.68	326.99	262.1	1511.2	219.22	212.46	1357.5	-233.42	258.47	1059.2	-295.28	284.3	1042.8	-135.73	416.92	1677.6	95.448	176.41	1189.8	-280.76	217.65	512.34	195.97	297.25	1048.8	353.94	198.87	650.6	208.52	345.32	540.92	-151.97	360.6	1306.6	17.887	300.62	895.3	-314.34	303.36	931.61	-256.66	226.11	1540.7	-150.8	255.26	276.54	157.4	395.94	40.834	66.42	289.27	907.39	384.28	307.44	29.051	154.58	344.97	53.345	56.5	228.17	931.14	-313.83	210.96	508.52	47.219	242.66	742.39	229.72	139.58	1572.7	50.731	242.76	198.06	87.095	65.09	1078.4	74.751	62.535	1079.7	-34.489	124.46	41.885	86.212	264.29	368.27	105.94	328.37	664.94	-178.24	326.89	401.01	-53.355	268.33	339.32	-44.661	260.8	825.23	-195.11	294.6	744.87	-187.98	253.27	282.58	95.868	301.08	1477.9	16.787	205.32	79.185	-46.494	381.9	534.6	-18.86	284.95	1054.7	182.93	212.96	105.55	33.65	186.57	73.348	124.19	347.44	769.36	-186.14	249.4	1707.3	119.34	247.95	1709.4	-23.586	273.2	325.15	-106.27	211.76	273.54	-36.213	205.61	1173.9	344.54	184.78	732.79	216.41	247.06	1331.8	295.22	141.14	204.53	8.6169	89.305	1453	171.29	34.33	217.74	-31.676	81.428	1216.3	23.192	172.26	819.7	227.63	153.21	93.471	-123.21	145.77	1161.1	-196.16	173.32	1145.4	257.43	93.324	200.76	-84.392
626	3.13	358.77	879.6	394.33	262.12	42.118	-67.799	362.83	913.62	327.34	266.86	1511.5	219.41	216.33	1357.6	-233.29	261.79	1059.4	-295.66	289.11	1043	-135.11	421.72	1677.6	95.402	179.91	1190	-280.63	218.87	512.32	196.14	303.21	1049.4	354.31	200.92	650.76	208.69	353.26	541.87	-151.71	365.1	1306.7	18.264	303.8	895.55	-315.09	306.91	931.75	-257.37	230.53	1540.8	-150.64	255.8	276.39	157.55	395.99	40.708	66.596	295.84	907.97	384.52	307.44	29.019	154.64	345.06	53.326	56.558	231.29	931.24	-313.94	212.44	508.58	47.307	245.24	742.29	229.91	144.21	1572.8	51	243.19	197.99	87.206	69.477	1078.6	74.712	67.059	1079.9	-34.535	124.51	41.957	86.205	265.16	368.11	106.13	335.59	666.28	-178.22	336.47	401.44	-53.106	279.45	338.75	-44.379	266.88	826.09	-195.02	301.22	745.98	-188.05	253.91	282.42	96.005	305.66	1478	17.013	222.05	78.014	-46.374	389.11	536.11	-18.58	288.95	1054.5	183.08	213.1	105.55	33.672	186.62	73.375	124.11	353.89	770.9	-185.84	254.26	1707.5	119.44	252.66	1709.4	-23.489	284.69	324.65	-105.93	224.13	272.04	-35.956	211.06	1174.1	344.96	187.35	733.01	216.54	252.13	1332.1	295.54	154.84	201.69	8.7581	94.042	1453.2	171.66	47.654	212.45	-31.502	85.956	1216.5	23.4	175.3	819.98	227.82	169.6	91.176	-123.07	149.55	1161.3	-195.96	178.85	1145.5	257.83	107.14	196.86	-84.203
